{"title":"Taken 2 2012 REPACK TS XViD UNiQUE [SilverTorrent]","uid":7711424,"size":1490370903,"categoryP":"video","categoryS":"movies","magnet":"?xt=urn:btih:918ecd96dd20fb980b735b9f83e01bf3e5001327&amp;dn=Taken+2+2012+REPACK+TS+XViD+UNiQUE+%5BSilverTorrent%5D&amp;tr=udp%3A%2F%2Ftracker.openbittorrent.com%3A80&amp;tr=udp%3A%2F%2Fopen.demonii.com%3A1337&amp;tr=udp%3A%2F%2Ftracker.coppersurfer.tk%3A6969&amp;tr=udp%3A%2F%2Fexodus.desync.com%3A6969","seeders":0,"leechers":1,"uploader":"AliBaloch","files":-1,"time":1349812778,"description":"SILVERTORRENT Clean Verified Torrents Download\n &lt;a href=&quot;\nhttp://silvertorrent.org/&quot; rel=&quot;nofollow&quot; target=&quot;_NEW&quot;&gt;\nhttp://silvertorrent.org/&lt;/a&gt;\n\n--------------------------------------------------\n &lt;a href=&quot;\nhttp://www.shotpix.com/images/64584251633393100348.jpg&quot; rel=&quot;nofollow&quot; target=&quot;_NEW&quot;&gt;\nhttp://www.shotpix.com/images/64584251633393100348.jpg&lt;/a&gt;\n\nTaken 2 2012 REPACK TS XViD UNiQUE [SilverTorrent]\n\nFormat                                   : AVI\nFormat/Info                              : Audio Video Interleave\nFile size                                : 1.38 GiB\nDuration                                 : 1h 26mn\nOverall bit rate                         : 2 292 Kbps\nWriting application                      : VirtualDubMod 1.5.10.2 (build 2540/release)\nWriting library                          : VirtualDubMod build 2540/release\n\nVideo\nID                                       : 0\nFormat                                   : MPEG-4 Visual\nFormat profile                           : Advanced Simple@L5\nFormat settings, BVOP                    : 2\nFormat settings, QPel                    : No\nFormat settings, GMC                     : No warppoints\nFormat settings, Matrix                  : Default (H.263)\nMuxing mode                              : Packed bitstream\nCodec ID                                 : XVID\nCodec ID/Hint                            : XviD\nDuration                                 : 1h 26mn\nBit rate                                 : 2 154 Kbps\nWidth                                    : 672 pixels\nHeight                                   : 280 pixels\nDisplay aspect ratio                     : 2.40:1\nFrame rate                               : 25.000 fps\nColor space                              : YUV\nChroma subsampling                       : 4:2:0\nBit depth                                : 8 bits\nScan type                                : Progressive\nCompression mode                         : Lossy\nBits/(Pixel*Frame)                       : 0.458\nStream size                              : 1.30 GiB (94%)\nWriting library                          : XviD 64\n\nAudio\nID                                       : 1\nFormat                                   : MPEG Audio\nFormat version                           : Version 1\nFormat profile                           : Layer 3\nCodec ID                                 : 55\nCodec ID/Hint                            : MP3\nDuration                                 : 1h 26mn\nBit rate mode                            : Constant\nBit rate                                 : 128 Kbps\nChannel(s)                               : 2 channels\nSampling rate                            : 48.0 KHz\nCompression mode                         : Lossy\nStream size                              : 78.8 MiB (6%)\nAlignment                                : Split accross interleaves\nInterleave, duration                     : 40 ms (1.00 video frame)\nInterleave, preload duration             : 500 ms\nWriting library                          : LAME\n\n\nIMDB: http://www.imdb.com/title/tt1397280\n\nScreen Shots:\n &lt;a href=&quot;\nhttp://lookpic.com/O/i2/1446/7HHzAWoH.png&quot; rel=&quot;nofollow&quot; target=&quot;_NEW&quot;&gt;\nhttp://lookpic.com/O/i2/1446/7HHzAWoH.png&lt;/a&gt; &lt;a href=&quot;\nhttp://lookpic.com/O/i2/1041/1Q6ZjTRp.png&quot; rel=&quot;nofollow&quot; target=&quot;_NEW&quot;&gt;\nhttp://lookpic.com/O/i2/1041/1Q6ZjTRp.png&lt;/a&gt; &lt;a href=&quot;\nhttp://lookpic.com/O/i2/1775/mdtwA9NN.png&quot; rel=&quot;nofollow&quot; target=&quot;_NEW&quot;&gt;\nhttp://lookpic.com/O/i2/1775/mdtwA9NN.png&lt;/a&gt; &lt;a href=&quot;\nhttp://lookpic.com/O/i2/1460/XECp87jq.png&quot; rel=&quot;nofollow&quot; target=&quot;_NEW&quot;&gt;\nhttp://lookpic.com/O/i2/1460/XECp87jq.png&lt;/a&gt; &lt;a href=&quot;\nhttp://www.secureboxes.net/?r=st&quot; rel=&quot;nofollow&quot; target=&quot;_NEW&quot;&gt;\nhttp://www.secureboxes.net/?r=st&lt;/a&gt;","torrent":{"xt":"urn:btih:918ecd96dd20fb980b735b9f83e01bf3e5001327","amp;dn":"Taken+2+2012+REPACK+TS+XViD+UNiQUE+%5BSilverTorrent%5D","amp;tr":["udp%3A%2F%2Ftracker.openbittorrent.com%3A80","udp%3A%2F%2Fopen.demonii.com%3A1337","udp%3A%2F%2Ftracker.coppersurfer.tk%3A6969","udp%3A%2F%2Fexodus.desync.com%3A6969"],"infoHash":"918ecd96dd20fb980b735b9f83e01bf3e5001327","infoHashBuffer":{"type":"Buffer","data":[145,142,205,150,221,32,251,152,11,115,91,159,131,224,27,243,229,0,19,39]},"announce":[],"urlList":[]}}